<svg id="main_svg" xmlns="http://www.w3.org/2000/svg" width="160" height="176"><g id="svg_g_bezier_cells"><path d="M52.36111075682232,34.431489055612545 C71.37870758201757,68.46297811122508 71.37870758201757,68.46297811122508 78.25528563962386,68.59521999694829 C85.13186369723016,68.72746188267148 85.13186369723016,68.72746188267148 104.3489623517315,34.56373094133574 C123.56606100623286,0.4 123.56606100623286,0.4 78.45478746892996,0.40000000000000013 C33.34351393162707,0.4000000000000002 33.34351393162707,0.4000000000000002 52.36111075682232,34.431489055612545 Z" fill="#221155" fill-opacity="0.2"/><path d="M96.19300579990576,79.08578291212113 C106.52306752838196,89.11201929564213 106.52306752838196,89.11201929564213 133.06153376419095,85.73439632017552 C159.59999999999997,82.35677334470891 159.59999999999997,82.35677334470891 159.6,41.37838667235446 C159.60000000000002,0.39999999999999986 159.60000000000002,0.39999999999999986 142.0419694968836,0.39999999999999986 C124.4839389937672,0.39999999999999986 124.4839389937672,0.39999999999999986 105.17344153259839,34.72977326430007 C85.86294407142958,69.05954652860014 85.86294407142958,69.05954652860014 96.19300579990576,79.08578291212113 Z" fill="#221155" fill-opacity="0.2"/><path d="M24.867157287525394,90.1 C49.33431457505079,90.10000000000001 49.33431457505079,90.10000000000001 59.98953939366355,79.44477518138723 C70.64476421227631,68.78955036277445 70.64476421227631,68.78955036277445 51.535919257971685,34.59477518138723 C32.42707430366705,0.39999999999999997 32.42707430366705,0.39999999999999997 16.413537151833523,0.4 C0.4000000000000001,0.4 0.4000000000000001,0.4 0.4,45.25 C0.4,90.1 0.4,90.1 24.867157287525394,90.1 Z" fill="#221155" fill-opacity="0.2"/><path d="M59.055289948250504,102.95845015340768 C68.08604981212797,115.37574496623918 68.08604981212797,115.37574496623918 80.0748941581395,115.66119364114422 C92.06373850415103,115.94664231604926 92.06373850415103,115.94664231604926 98.97660450760995,102.77927849993705 C105.88947051106886,89.61191468382482 105.88947051106886,89.61191468382482 95.5436642071202,79.57039680058054 C85.19785790317155,69.52887891733627 85.19785790317155,69.52887891733627 78.25092702987868,69.39528409284986 C71.30399615658581,69.26168926836347 71.30399615658581,69.26168926836347 60.664263120479426,79.90142230446983 C50.02453008437304,90.5411553405762 50.02453008437304,90.5411553405762 59.055289948250504,102.95845015340768 Z" fill="#221155" fill-opacity="0.2"/><path d="M107.92562333255945,145.977356578328 C123.0981967924402,175.59999999999997 123.0981967924402,175.59999999999997 141.3490983962201,175.59999999999997 C159.60000000000002,175.59999999999997 159.60000000000002,175.59999999999997 159.60000000000002,129.38161332764548 C159.60000000000005,83.16322665529103 159.60000000000005,83.16322665529103 133.11994072795173,86.53341601718807 C106.63988145590342,89.90360537908512 106.63988145590342,89.90360537908512 99.69646566429105,103.12915926787058 C92.7530498726787,116.35471315665603 92.7530498726787,116.35471315665603 107.92562333255945,145.977356578328 Z" fill="#221155" fill-opacity="0.2"/><path d="M50.585212254143656,145.69928667038081 C67.40436350205444,115.79857334076166 67.40436350205444,115.79857334076166 58.350336832686565,103.34928667038085 C49.2963101633187,90.90000000000002 49.2963101633187,90.90000000000002 24.84815508165935,90.90000000000003 C0.4,90.90000000000003 0.4,90.90000000000003 0.4,133.25000000000006 C0.4,175.60000000000005 0.4,175.60000000000005 17.08303050311644,175.60000000000002 C33.76606100623288,175.59999999999997 33.76606100623288,175.59999999999997 50.585212254143656,145.69928667038081 Z" fill="#221155" fill-opacity="0.2"/><path d="M107.12716742646117,146.17333014166462 C92.05497066975283,116.74666028332928 92.05497066975283,116.74666028332928 80.08230483028083,116.46159681096091 C68.10963899080883,116.17653333859253 68.10963899080883,116.17653333859253 51.396788992287995,145.88826666929626 C34.683938993767164,175.6 34.683938993767164,175.6 78.44165158846835,175.6 C122.19936418316952,175.6 122.19936418316952,175.6 107.12716742646117,146.17333014166462 Z" fill="#221155" fill-opacity="0.2"/></g><g id="svg_g_edges"><path id="svg_path_edges" d="M 85.36325802615933 69.1319857312723 L 124.25 0 M 71.14150943396227 68.85849056603774 L 32.661764705882355 0 M 71.14150943396227 68.85849056603774 L 85.36325802615933 69.1319857312723 M 71.14150943396227 68.85849056603774 L 49.5 90.5 M 85.36325802615933 69.1319857312723 L 106.38261081344373 89.53312226010716 M 106.38261081344373 89.53312226010716 L 160 82.7090909090909 M 106.38261081344373 89.53312226010716 L 92.30246913580247 116.35243974132862 M 49.5 90.5 L 0 90.5 M 49.5 90.5 L 67.87885462555066 115.77092511013215 M 67.87885462555066 115.77092511013215 L 92.30246913580247 116.35243974132862 M 67.87885462555066 115.77092511013215 L 34.00000000000001 176 M 92.30246913580247 116.35243974132862 L 122.85365853658537 176 M 34.00000000000001 176 L 122.85365853658537 176 M 0 90.5 L 0 176 M 0 176 L 34.00000000000001 176 M 122.85365853658537 176 L 160 176 M 160 176 L 160 82.7090909090909 M 32.661764705882355 0 L 0 0 M 0 0 L 0 90.5 M 160 82.7090909090909 L 160 0 M 160 0 L 124.25 0 M 124.25 0 L 32.661764705882355 0 " stroke="black" stroke-width="2"/></g><g id="svg_g_seeds"><circle id="c_0" cx="45" cy="62" r="3" stroke="black" stroke-width="2" fill="#1F7BFD"/><circle id="c_1" cx="118" cy="116" r="3" stroke="black" stroke-width="2" fill="#1F7BFD"/><circle id="c_2" cx="79" cy="43" r="3" stroke="black" stroke-width="2" fill="#1F7BFD"/><circle id="c_4" cx="78" cy="95" r="3" stroke="black" stroke-width="2" fill="#1F7BFD"/><circle id="c_5" cx="77" cy="137" r="3" stroke="black" stroke-width="2" fill="#1F7BFD"/><circle id="c_6" cx="111" cy="61" r="3" stroke="black" stroke-width="2" fill="#1F7BFD"/><circle id="c_7" cx="45" cy="119" r="3" stroke="black" stroke-width="2" fill="#1F7BFD"/></g></svg>