<svg id="main_svg" xmlns="http://www.w3.org/2000/svg" width="256" height="272"><g id="svg_g_shape_map">
        <image x="0" y="0" xmlns:xlink="http://www.w3.org/1999/xlink" xlink:href="blob:https://voronoi-editor.web.app/fca8f369-0021-4af3-8e1c-f54201daf5a4"/>
    </g><g id="svg_g_bezier_cells"><path d="M76.084353062945,29.379266378972147 C89.21125931737937,58.758532757944295 89.21125931737937,58.758532757944295 106.94596148990641,57.053272933662846 C124.68066366243346,55.3480131093814 124.68066366243346,55.3480131093814 131.0226234978834,27.6740065546907 C137.36458333333334,0 137.36458333333334,0 100.16101507092199,0 C62.95744680851063,0 62.95744680851063,0 76.084353062945,29.379266378972147 Z" fill="#221155" fill-opacity="0.2"/><path d="M129.99730857540277,60.92400655469066 C135.3139534883721,66.49999999999999 135.3139534883721,66.49999999999999 181.61429381735678,66.49999999999997 C227.91463414634146,66.49999999999997 227.91463414634146,66.49999999999997 241.9573170731707,55.32038834951456 C256,44.14077669902914 256,44.14077669902914 256,22.07038834951457 C256,0 256,0 196.68229166666669,0 C137.36458333333334,0 137.36458333333334,0 131.0226234978834,27.674006554690674 C124.68066366243346,55.34801310938135 124.68066366243346,55.34801310938135 129.99730857540277,60.92400655469066 Z" fill="#221155" fill-opacity="0.2"/><path d="M18.175985090521834,63.56006287376095 C36.35197018104367,80.68743343982959 36.35197018104367,80.68743343982959 58.39011552530447,77.08936889382782 C80.42826086956528,73.49130434782606 80.42826086956528,73.49130434782606 84.81976009347233,66.12491855288519 C89.21125931737937,58.75853275794432 89.21125931737937,58.75853275794432 76.08435306294501,29.37926637897216 C62.95744680851064,0 62.95744680851064,0 31.47872340425532,0 C0,0 0,0 0,23.216346153846153 C0,46.43269230769231 0,46.43269230769231 18.175985090521834,63.56006287376095 Z" fill="#221155" fill-opacity="0.2"/><path d="M90.89409152427679,99.0744459482321 C101.35992217898834,124.6575875486381 101.35992217898834,124.6575875486381 113.50718881226646,121.53869476441805 C125.65445544554457,118.419801980198 125.65445544554457,118.419801980198 130.48420446695832,92.45990099009899 C135.31395348837208,66.49999999999996 135.31395348837208,66.49999999999996 129.99730857540277,60.92400655469066 C124.68066366243343,55.34801310938137 124.68066366243343,55.34801310938137 106.94596148990641,57.053272933662825 C89.2112593173794,58.75853275794429 89.2112593173794,58.75853275794429 84.81976009347233,66.12491855288519 C80.42826086956524,73.49130434782609 80.42826086956524,73.49130434782609 90.89409152427679,99.0744459482321 Z" fill="#221155" fill-opacity="0.2"/><path d="M153.11345312527675,128.4048920455552 C180.57245080500894,138.38998211091237 180.57245080500894,138.38998211091237 204.2435424756752,102.44499105545619 C227.91463414634148,66.5 227.91463414634148,66.5 181.61429381735678,66.50000000000001 C135.31395348837208,66.50000000000003 135.31395348837208,66.50000000000003 130.48420446695832,92.45990099009902 C125.65445544554454,118.41980198019802 125.65445544554454,118.41980198019802 153.11345312527675,128.4048920455552 Z" fill="#221155" fill-opacity="0.2"/><path d="M37.06847655809863,94.30105460387385 C37.78498293515358,107.91467576791811 37.78498293515358,107.91467576791811 49.27557941798355,122.19087139810084 C60.76617590081353,136.46706702828357 60.76617590081353,136.46706702828357 74.14004205332752,138.35071014835594 C87.5139082058415,140.23435326842832 87.5139082058415,140.23435326842832 94.43691519241492,132.4459704085332 C101.35992217898833,124.6575875486381 101.35992217898833,124.6575875486381 90.89409152427677,99.0744459482321 C80.42826086956522,73.49130434782607 80.42826086956522,73.49130434782607 58.39011552530445,77.08936889382784 C36.35197018104368,80.68743343982959 36.35197018104368,80.68743343982959 37.06847655809863,94.30105460387385 Z" fill="#221155" fill-opacity="0.2"/><path d="M18.8924914675768,117.99067121729237 C37.7849829351536,107.9146757679181 37.7849829351536,107.9146757679181 37.06847655809865,94.30105460387387 C36.3519701810437,80.68743343982962 36.3519701810437,80.68743343982962 18.17598509052185,63.56006287376096 C0,46.43269230769231 0,46.43269230769231 0,87.24967948717949 C0,128.06666666666666 0,128.06666666666666 18.8924914675768,117.99067121729237 Z" fill="#221155" fill-opacity="0.2"/><path d="M30.383087950406814,161.25327035624707 C60.76617590081363,136.46706702828365 60.76617590081363,136.46706702828365 49.2755794179836,122.19087139810085 C37.78498293515357,107.91467576791807 37.78498293515357,107.91467576791807 18.892491467576786,117.99067121729237 C0,128.06666666666666 0,128.06666666666666 0,157.0530701754386 C0,186.03947368421052 0,186.03947368421052 30.383087950406814,161.25327035624707 Z" fill="#221155" fill-opacity="0.2"/><path d="M182.90888298342446,159.0284663535822 C185.24531516183993,179.66695059625206 185.24531516183993,179.66695059625206 220.62265758091996,191.2030405155173 C256,202.73913043478254 256,202.73913043478254 256,123.43995356690584 C256,44.14077669902916 256,44.14077669902916 241.95731707317083,55.320388349514594 C227.91463414634163,66.50000000000003 227.91463414634163,66.50000000000003 204.24354247567533,102.44499105545616 C180.572450805009,138.38998211091229 180.572450805009,138.38998211091229 182.90888298342446,159.0284663535822 Z" fill="#221155" fill-opacity="0.2"/><path d="M98.88446126624451,195.57104482905658 C110.25501432664758,250.90773638968477 110.25501432664758,250.90773638968477 147.75016474424373,215.2873434929685 C185.2453151618399,179.66695059625218 185.2453151618399,179.66695059625218 182.9088829834244,159.02846635358227 C180.57245080500894,138.38998211091237 180.57245080500894,138.38998211091237 153.11345312527675,128.4048920455552 C125.65445544554454,118.41980198019803 125.65445544554454,118.41980198019803 113.5071888122664,121.5386947644181 C101.35992217898826,124.65758754863816 101.35992217898826,124.65758754863816 94.43691519241486,132.44597040853324 C87.51390820584145,140.23435326842835 87.51390820584145,140.23435326842835 98.88446126624451,195.57104482905658 Z" fill="#221155" fill-opacity="0.2"/><path d="M105.65435280090767,261.4538681948424 C110.25501432664757,250.9077363896848 110.25501432664757,250.9077363896848 98.8844612662445,195.57104482905658 C87.51390820584145,140.23435326842835 87.51390820584145,140.23435326842835 74.14004205332753,138.35071014835597 C60.766175900813636,136.4670670282836 60.766175900813636,136.4670670282836 30.383087950406818,161.25327035624701 C0,186.03947368421046 0,186.03947368421046 0,229.01973684210523 C0,272 0,272 50.52684563758388,272 C101.05369127516776,272 101.05369127516776,272 105.65435280090767,261.4538681948424 Z" fill="#221155" fill-opacity="0.2"/><path d="M220.62265758092,191.2030405155173 C185.24531516183998,179.66695059625206 185.24531516183998,179.66695059625206 147.7501647442437,215.28734349296855 C110.25501432664745,250.907736389685 110.25501432664745,250.907736389685 105.6543528009076,261.45386819484247 C101.05369127516775,272 101.05369127516775,272 178.52684563758388,272 C256,272 256,272 256,237.36956521739125 C256,202.73913043478254 256,202.73913043478254 220.62265758092,191.2030405155173 Z" fill="#221155" fill-opacity="0.2"/></g><g id="svg_g_edges"><path id="svg_path_edges" d="M 124.68066366243343 55.3480131093814 L 137.36458333333334 0 M 89.21125931737936 58.758532757944295 L 62.95744680851063 0 M 124.68066366243343 55.3480131093814 L 89.21125931737936 58.758532757944295 M 124.68066366243343 55.3480131093814 L 135.31395348837208 66.5 M 89.21125931737936 58.758532757944295 L 80.42826086956522 73.49130434782609 M 135.31395348837208 66.5 L 227.91463414634148 66.5 M 135.31395348837208 66.5 L 125.65445544554456 118.41980198019802 M 80.42826086956522 73.49130434782609 L 36.35197018104367 80.6874334398296 M 36.35197018104367 80.6874334398296 L 0 46.43269230769231 M 80.42826086956522 73.49130434782609 L 101.35992217898833 124.65758754863813 M 36.35197018104367 80.6874334398296 L 37.78498293515358 107.91467576791808 M 37.78498293515358 107.91467576791808 L 0 128.06666666666666 M 37.78498293515358 107.91467576791808 L 60.766175900813636 136.46706702828362 M 227.91463414634148 66.5 L 256 44.14077669902912 M 227.91463414634148 66.5 L 180.57245080500894 138.38998211091234 M 125.65445544554456 118.41980198019802 L 180.57245080500894 138.38998211091234 M 125.65445544554456 118.41980198019802 L 101.35992217898833 124.65758754863813 M 101.35992217898833 124.65758754863813 L 87.51390820584145 140.23435326842838 M 60.766175900813636 136.46706702828362 L 0 186.03947368421052 M 60.766175900813636 136.46706702828362 L 87.51390820584145 140.23435326842838 M 87.51390820584145 140.23435326842838 L 110.25501432664757 250.90773638968483 M 180.57245080500894 138.38998211091234 L 185.24531516183987 179.66695059625212 M 185.24531516183987 179.66695059625212 L 256 202.73913043478262 M 185.24531516183987 179.66695059625212 L 110.25501432664757 250.90773638968483 M 110.25501432664757 250.90773638968483 L 101.05369127516778 272 M 101.05369127516778 272 L 256 272 M 256 272 L 256 202.73913043478262 M 0 186.03947368421052 L 0 272 M 0 272 L 101.05369127516778 272 M 256 202.73913043478262 L 256 44.14077669902912 M 0 128.06666666666666 L 0 186.03947368421052 M 0 46.43269230769231 L 0 128.06666666666666 M 62.95744680851063 0 L 0 0 M 0 0 L 0 46.43269230769231 M 256 44.14077669902912 L 256 0 M 256 0 L 137.36458333333334 0 M 137.36458333333334 0 L 62.95744680851063 0 " stroke="black" stroke-width="2"/></g><g id="svg_g_seeds"><circle id="c_0" cx="110" cy="83" r="3" stroke="black" stroke-width="2" fill="#1F7BFD"/><circle id="c_1" cx="153" cy="91" r="3" stroke="black" stroke-width="2" fill="#1F7BFD"/><circle id="c_2" cx="58" cy="52" r="3" stroke="black" stroke-width="2" fill="#1F7BFD"/><circle id="c_3" cx="105" cy="31" r="3" stroke="black" stroke-width="2" fill="#1F7BFD"/><circle id="c_4" cx="9" cy="104" r="3" stroke="black" stroke-width="2" fill="#1F7BFD"/><circle id="c_5" cx="56" cy="172" r="3" stroke="black" stroke-width="2" fill="#1F7BFD"/><circle id="c_6" cx="25" cy="134" r="3" stroke="black" stroke-width="2" fill="#1F7BFD"/><circle id="c_7" cx="66" cy="101" r="3" stroke="black" stroke-width="2" fill="#1F7BFD"/><circle id="c_8" cx="153" cy="42" r="3" stroke="black" stroke-width="2" fill="#1F7BFD"/><circle id="c_9" cx="129" cy="157" r="3" stroke="black" stroke-width="2" fill="#1F7BFD"/><circle id="c_10" cx="235" cy="145" r="3" stroke="black" stroke-width="2" fill="#1F7BFD"/><circle id="c_11" cx="205" cy="237" r="3" stroke="black" stroke-width="2" fill="#1F7BFD"/></g></svg>